<?xml version="1.0" standalone="no"?>
<!DOCTYPE svg PUBLIC "-//W3C//DTD SVG 20010904//EN"
 "http://www.w3.org/TR/2001/REC-SVG-20010904/DTD/svg10.dtd">
<svg version="1.0" xmlns="http://www.w3.org/2000/svg"
 width="512.000000pt" height="512.000000pt" viewBox="0 0 512.000000 512.000000"
 preserveAspectRatio="xMidYMid meet">
<metadata>
Created by potrace 1.14, written by Peter Selinger 2001-2017
</metadata>
<g transform="translate(0.000000,512.000000) scale(0.100000,-0.100000)"
fill="#000000" stroke="none">
<path d="M3390 5100 c-123 -57 -177 -182 -136 -308 25 -73 99 -143 169 -158
55 -13 129 -4 176 20 139 72 174 270 67 384 -69 75 -191 102 -276 62z"/>
<path d="M2768 4795 c-80 -29 -142 -86 -180 -163 -35 -72 -33 -187 5 -264 70
-142 238 -206 389 -148 157 59 236 252 168 408 -28 66 -108 141 -176 165 -58
20 -153 21 -206 2z"/>
<path d="M1510 3795 l0 -215 43 -1 c23 0 104 0 179 0 87 0 139 -3 144 -10 3
-6 6 -145 6 -309 l0 -298 -628 -1003 c-346 -552 -643 -1031 -661 -1065 -73
-135 -87 -320 -37 -472 48 -144 164 -279 299 -349 152 -78 38 -73 1730 -70
l1510 2 78 28 c182 64 326 205 387 380 54 153 42 336 -30 476 -16 31 -161 266
-322 523 -161 258 -445 712 -631 1009 l-338 542 0 266 c0 146 0 285 0 307 l1
42 163 0 c89 1 172 1 185 1 l22 1 0 215 0 215 -1050 0 -1050 0 0 -215z m1297
-588 l0 -372 99 -157 c55 -87 168 -269 253 -405 85 -137 173 -277 196 -313 99
-155 175 -280 175 -287 0 -4 -438 -8 -974 -8 -971 0 -974 0 -963 20 5 11 27
46 49 78 21 32 38 60 38 62 0 3 113 184 140 225 6 8 66 105 135 215 68 110
129 205 135 212 5 7 10 15 10 18 0 3 17 32 38 63 20 32 42 66 49 77 6 11 37
61 68 110 l57 90 1 365 c0 211 4 368 10 371 5 4 116 7 246 7 l237 0 1 -371z"/>
</g>
</svg>
